Coordinates
version=1
nRows=14
nColumns=46
inDegrees=yes

Units are S.I. units (second, meters, Newtons, ...)
Angles are in degrees.

endheader
time	pelvis_tilt	pelvis_list	pelvis_rotation	pelvis_tx	pelvis_ty	pelvis_tz	bb_angle	bb_tx	bb_ty	bb_tz	hip_flexion_r	hip_adduction_r	hip_rotation_r	knee_angle_r	knee_angle_r_beta	ankle_angle_r	subtalar_angle_r	mtp_angle_r	crank_angle_r	hip_flexion_l	hip_adduction_l	hip_rotation_l	knee_angle_l	knee_angle_l_beta	ankle_angle_l	subtalar_angle_l	mtp_angle_l	crank_angle_l	lumbar_extension	lumbar_bending	lumbar_rotation	arm_flex_r	arm_add_r	arm_rot_r	elbow_flex_r	pro_sup_r	wrist_flex_r	wrist_dev_r	arm_flex_l	arm_add_l	arm_rot_l	elbow_flex_l	pro_sup_l	wrist_flex_l	wrist_dev_l
      2.50000000	    -17.47100911	      0.13055446	     -1.12647957	      0.13981437	      1.14818875	     -0.26141959	      0.00000000	      0.50000000	      0.00000000	      0.25000000	     53.94612774	     -0.88035719	      3.16443581	     42.09240113	      0.73465099	      3.36856661	     -6.41191552	      0.00000000	      0.00000000	     81.60940676	     -7.95080806	      2.52558915	    110.45985415	      1.92788815	     -8.10677000	     -7.88304346	      0.00000000	      0.00000000	    -63.19321430	     -0.35763821	     -4.20065983	     89.73312702	     -8.05715234	     25.66023990	     62.52521028	     25.60461225	      0.00000000	      0.00000000	     84.62615209	    -23.30474629	     15.06039465	     69.07753708	     45.30221770	      0.00000000	      0.00000000
      2.50500000	    -17.02596907	      0.53790421	     -0.48255599	      0.14043577	      1.15006864	     -0.26092550	      0.00000000	      0.50000000	      0.00000000	      0.25000000	     52.07258774	     -1.79885178	      2.64097035	     40.64826529	      0.70944606	      3.06244102	     -5.62897177	      0.00000000	      0.00000000	     82.32662324	     -7.38705689	      2.40289260	    111.14219654	      1.93979727	     -8.25116494	     -7.36403695	      0.00000000	      0.00000000	    -63.71920328	     -0.62221180	     -4.44463689	     89.72827871	     -9.14495014	     25.75622905	     62.38918603	     25.65618852	      0.00000000	      0.00000000	     85.30263633	    -22.02986052	     15.23970730	     68.45839132	     45.26784288	      0.00000000	      0.00000000
      2.51000000	    -16.95565890	      1.03301657	     -0.08608609	      0.14077531	      1.15090598	     -0.26028807	      0.00000000	      0.50000000	      0.00000000	      0.25000000	     50.79053318	     -2.62343238	      2.21728266	     39.47090602	      0.68889727	      2.88152261	     -4.66941432	      0.00000000	      0.00000000	     83.43658311	     -7.03319644	      2.15286817	    111.80209727	      1.95131471	     -8.16206675	     -6.88715600	      0.00000000	      0.00000000	    -63.79570761	     -1.14916238	     -4.32446840	     89.70820334	    -10.76020621	     26.07888185	     62.69232561	     25.88831937	      0.00000000	      0.00000000	     86.08863329	    -20.27168959	     15.51681821	     67.03511202	     45.13648461	      0.00000000	      0.00000000
      2.51500000	    -17.06231157	      1.41070388	      0.36739333	      0.14133425	      1.15129757	     -0.25929996	      0.00000000	      0.50000000	      0.00000000	      0.25000000	     49.71145305	     -3.29451487	      1.84552245	     38.39248145	      0.67007521	      2.45627444	     -4.24705610	      0.00000000	      0.00000000	     84.75695050	     -6.72787014	      2.02383644	    112.39448285	      1.96165379	     -8.24866868	     -6.61314049	      0.00000000	      0.00000000	    -63.71047919	     -1.46422671	     -4.85719830	     89.68022203	    -11.09671836	     26.01630276	     62.65582745	     25.91313996	      0.00000000	      0.00000000	     86.23253970	    -19.88430331	     15.63319832	     67.05004144	     45.15588255	      0.00000000	      0.00000000
      2.52000000	    -16.79004441	      1.64981480	      1.01975881	      0.14214174	      1.15234289	     -0.25903370	      0.00000000	      0.50000000	      0.00000000	      0.25000000	     48.31464859	     -4.19349411	      0.67662878	     37.61148232	      0.65644420	      2.45273135	     -3.22673247	      0.00000000	      0.00000000	     85.65152374	     -6.24428636	      2.04504909	    112.91986115	      1.97082337	     -8.15240508	     -5.89635798	      0.00000000	      0.00000000	    -64.03895006	     -1.60632600	     -4.86777047	     89.66887034	    -12.21995222	     26.22044918	     62.56740257	     26.02239031	      0.00000000	      0.00000000	     86.64640817	    -18.68017124	     16.03714033	     66.58056028	     45.13834110	      0.00000000	      0.00000000
      2.52500000	    -16.74614477	      2.02665551	      1.52598816	      0.14279019	      1.15306306	     -0.25837796	      0.00000000	      0.50000000	      0.00000000	      0.25000000	     47.27230929	     -5.00769614	     -0.09345905	     36.98288156	      0.64547305	      2.31023445	     -2.32947723	      0.00000000	      0.00000000	     86.66717522	     -5.91292459	      1.82597741	    113.28391232	      1.97717726	     -8.07503371	     -5.40994734	      0.00000000	      0.00000000	    -64.12502424	     -2.04059346	     -4.61276397	     89.63148239	    -14.33735725	     27.00109697	     63.31446741	     26.54409593	      0.00000000	      0.00000000	     87.48190294	    -16.67005439	     16.43803162	     64.97305507	     44.94305293	      0.00000000	      0.00000000
      2.53000000	    -16.75676248	      2.31797502	      2.18116771	      0.14322142	      1.15362172	     -0.25778738	      0.00000000	      0.50000000	      0.00000000	      0.25000000	     46.39778661	     -5.83716716	     -1.08614172	     36.56978846	      0.63826322	      2.12560446	     -1.66077598	      0.00000000	      0.00000000	     87.77206153	     -5.51031638	      1.64733151	    113.52918261	      1.98145803	     -8.10221646	     -4.97098684	      0.00000000	      0.00000000	    -64.18447900	     -2.19800692	     -4.81443878	     89.60526625	    -15.24950122	     27.18412342	     63.42861655	     26.83885497	      0.00000000	      0.00000000	     87.78460329	    -15.70427219	     16.77639031	     64.75021548	     44.93703777	      0.00000000	      0.00000000
      2.53500000	    -16.71118003	      2.68710173	      2.75589337	      0.14386924	      1.15422237	     -0.25732558	      0.00000000	      0.50000000	      0.00000000	      0.25000000	     45.60166297	     -6.72438332	     -2.08144157	     36.46046349	      0.63635513	      2.06285790	     -0.95633309	      0.00000000	      0.00000000	     88.70487793	     -5.00449779	      1.44489995	    113.70276934	      1.98448769	     -8.03415854	     -4.53007146	      0.00000000	      0.00000000	    -64.30409669	     -2.45042335	     -5.03479187	     89.57319234	    -16.19443803	     27.38691407	     63.56411686	     27.13446576	      0.00000000	      0.00000000	     88.10642970	    -14.73476987	     17.25029968	     64.46619748	     44.90697357	      0.00000000	      0.00000000
      2.54000000	    -16.71849529	      2.97398264	      3.36942080	      0.14437100	      1.15482968	     -0.25683458	      0.00000000	      0.50000000	      0.00000000	      0.25000000	     44.93997882	     -7.51367221	     -3.02710785	     36.49587603	      0.63697320	      1.83726796	     -0.61686581	      0.00000000	      0.00000000	     89.61453075	     -4.56100865	      1.22619108	    113.71072143	      1.98462648	     -7.99779178	     -4.18104990	      0.00000000	      0.00000000	    -64.38488861	     -2.61985530	     -5.29999078	     89.54358517	    -16.84549329	     27.42765667	     63.59239248	     27.27604993	      0.00000000	      0.00000000	     88.32159983	    -13.93924092	     17.66106104	     64.44574727	     44.91602079	      0.00000000	      0.00000000
      2.54500000	    -16.81362983	      3.24790317	      3.92903957	      0.14485636	      1.15545383	     -0.25620482	      0.00000000	      0.50000000	      0.00000000	      0.25000000	     44.44904891	     -8.20653253	     -3.83859190	     36.65053478	      0.63967250	      1.41608078	     -0.56204798	      0.00000000	      0.00000000	     90.50257125	     -4.19565593	      0.95577584	    113.56791355	      1.98213402	     -7.94608357	     -3.87695076	      0.00000000	      0.00000000	    -64.41293577	     -2.78281755	     -5.69166645	     89.51098867	    -17.07881466	     27.41719638	     63.61246027	     27.32574927	      0.00000000	      0.00000000	     88.54240180	    -13.32571807	     17.97487903	     64.56858324	     44.95355410	      0.00000000	      0.00000000
      2.55000000	    -16.65493159	      3.75063490	      4.72177145	      0.14504913	      1.15674988	     -0.25597369	      0.00000000	      0.50000000	      0.00000000	      0.25000000	     43.83459562	     -9.32711320	     -4.73454431	     37.19382431	      0.64915470	      1.55876032	      0.11586782	      0.00000000	      0.00000000	     90.91356329	     -3.47220135	      0.44638033	    113.20396644	      1.97578194	     -7.71274014	     -3.67389141	      0.00000000	      0.00000000	    -64.71274432	     -2.91659640	     -5.89328864	     89.48361022	    -18.33239393	     27.60694396	     63.88309472	     27.59528790	      0.00000000	      0.00000000	     88.84809590	    -12.18966101	     18.74254063	     64.08406823	     44.85072444	      0.00000000	      0.00000000
      2.55500000	    -16.80414621	      4.02769230	      5.36967953	      0.14545280	      1.15722603	     -0.25591777	      0.00000000	      0.50000000	      0.00000000	      0.25000000	     43.64520558	    -10.09347717	     -5.35105656	     37.87192222	      0.66098974	      1.36478377	      0.02732275	      0.00000000	      0.00000000	     91.64145197	     -2.97392629	      0.06660460	    112.80636958	      1.96884257	     -7.52185179	     -3.35654153	      0.00000000	      0.00000000	    -64.67018646	     -2.95281759	     -6.13981944	     89.44414812	    -18.96543902	     27.67868920	     63.98409958	     27.74562336	      0.00000000	      0.00000000	     88.95204889	    -11.48560988	     19.12050315	     64.08911764	     44.81810192	      0.00000000	      0.00000000
      2.56000000	    -16.87733466	      4.30657407	      6.08622030	      0.14550068	      1.15797771	     -0.25584343	      0.00000000	      0.50000000	      0.00000000	      0.25000000	     43.51894613	    -10.91227763	     -5.97307197	     38.81835084	      0.67750803	      1.18760670	      0.10876192	      0.00000000	      0.00000000	     92.16504493	     -2.36528717	     -0.31394089	    112.19764073	      1.95821824	     -7.29215096	     -3.17378463	      0.00000000	      0.00000000	    -64.75347264	     -2.95724782	     -6.11351285	     89.40332700	    -20.42796365	     28.43747839	     64.56548175	     28.45937852	      0.00000000	      0.00000000	     89.13989737	    -10.26414707	     19.62256820	     63.77410361	     44.38343610	      0.00000000	      0.00000000
      2.56500000	    -16.99814528	      4.59937479	      6.73828365	      0.14548901	      1.15861033	     -0.25571039	      0.00000000	      0.50000000	      0.00000000	      0.25000000	     43.54288553	    -11.66169746	     -6.37524928	     39.90058216	      0.69639653	      0.89005164	     -0.35016042	      0.00000000	      0.00000000	     92.63424495	     -1.81043591	     -0.68602050	    111.48762666	      1.94582616	     -7.01217575	     -2.83232149	      0.00000000	      0.00000000	    -64.76903173	     -2.96202100	     -6.50056957	     89.38115195	    -20.69572765	     28.28219892	     64.42214474	     28.48638462	      0.00000000	      0.00000000	     89.22110268	     -9.73509974	     19.93108966	     64.00038966	     44.39428238	      0.00000000	      0.00000000
